<svg width="1280" height="560" viewBox="0 0 1280 560" fill="none" xmlns="http://www.w3.org/2000/svg">
  <rect width="1280" height="560" rx="24" fill="#F8FAFC"/>
  <rect x="90" y="130" width="300" height="300" rx="20" fill="#FFFFFF" stroke="#E2E8F0"/>
  <rect x="490" y="130" width="300" height="300" rx="20" fill="#FFFFFF" stroke="#E2E8F0"/>
  <rect x="890" y="130" width="300" height="300" rx="20" fill="#FFFFFF" stroke="#E2E8F0"/>

  <circle cx="150" cy="190" r="24" fill="#F1F5F9"/>
  <circle cx="550" cy="190" r="24" fill="#F1F5F9"/>
  <circle cx="950" cy="190" r="24" fill="#F1F5F9"/>

  <rect x="188" y="170" width="170" height="20" rx="10" fill="#CBD5E1"/>
  <rect x="588" y="170" width="170" height="20" rx="10" fill="#CBD5E1"/>
  <rect x="988" y="170" width="170" height="20" rx="10" fill="#CBD5E1"/>

  <rect x="130" y="228" width="220" height="14" rx="7" fill="#94A3B8" fill-opacity="0.65"/>
  <rect x="130" y="252" width="200" height="10" rx="5" fill="#CBD5E1"/>
  <rect x="130" y="272" width="190" height="10" rx="5" fill="#CBD5E1"/>

  <rect x="530" y="228" width="220" height="14" rx="7" fill="#94A3B8" fill-opacity="0.65"/>
  <rect x="530" y="252" width="200" height="10" rx="5" fill="#CBD5E1"/>
  <rect x="530" y="272" width="190" height="10" rx="5" fill="#CBD5E1"/>

  <rect x="930" y="228" width="220" height="14" rx="7" fill="#94A3B8" fill-opacity="0.65"/>
  <rect x="930" y="252" width="200" height="10" rx="5" fill="#CBD5E1"/>
  <rect x="930" y="272" width="190" height="10" rx="5" fill="#CBD5E1"/>

  <path d="M390 280H490" stroke="#94A3B8" stroke-width="5" stroke-linecap="round"/>
  <path d="M790 280H890" stroke="#94A3B8" stroke-width="5" stroke-linecap="round"/>
  <path d="M478 280L464 268V292L478 280Z" fill="#94A3B8"/>
  <path d="M878 280L864 268V292L878 280Z" fill="#94A3B8"/>

  <rect x="90" y="458" width="1100" height="34" rx="14" fill="#FFFFFF" stroke="#E2E8F0"/>
  <rect x="118" y="470" width="250" height="10" rx="5" fill="#CBD5E1"/>
  <rect x="390" y="470" width="240" height="10" rx="5" fill="#CBD5E1"/>
  <rect x="650" y="470" width="240" height="10" rx="5" fill="#CBD5E1"/>
  <rect x="910" y="470" width="240" height="10" rx="5" fill="#CBD5E1"/>
</svg>
