<svg width="1280" height="540" viewBox="0 0 1280 540" fill="none" xmlns="http://www.w3.org/2000/svg">
  <rect width="1280" height="540" rx="24" fill="#0B1120"/>
  <g opacity="0.9">
    <rect x="60" y="170" width="220" height="200" rx="20" fill="#1E293B" stroke="#475569"/>
    <rect x="320" y="170" width="220" height="200" rx="20" fill="#1E293B" stroke="#475569"/>
    <rect x="580" y="170" width="220" height="200" rx="20" fill="#1E293B" stroke="#475569"/>
    <rect x="840" y="170" width="220" height="200" rx="20" fill="#1E293B" stroke="#475569"/>
  </g>
  <rect x="98" y="210" width="144" height="34" rx="10" fill="#4F46E5" fill-opacity="0.45"/>
  <rect x="358" y="210" width="144" height="34" rx="10" fill="#0EA5E9" fill-opacity="0.45"/>
  <rect x="618" y="210" width="144" height="34" rx="10" fill="#14B8A6" fill-opacity="0.45"/>
  <rect x="878" y="210" width="144" height="34" rx="10" fill="#8B5CF6" fill-opacity="0.45"/>

  <rect x="98" y="262" width="140" height="14" rx="7" fill="#CBD5E1" fill-opacity="0.85"/>
  <rect x="98" y="286" width="160" height="10" rx="5" fill="#94A3B8" fill-opacity="0.7"/>
  <rect x="358" y="262" width="140" height="14" rx="7" fill="#CBD5E1" fill-opacity="0.85"/>
  <rect x="358" y="286" width="160" height="10" rx="5" fill="#94A3B8" fill-opacity="0.7"/>
  <rect x="618" y="262" width="140" height="14" rx="7" fill="#CBD5E1" fill-opacity="0.85"/>
  <rect x="618" y="286" width="160" height="10" rx="5" fill="#94A3B8" fill-opacity="0.7"/>
  <rect x="878" y="262" width="140" height="14" rx="7" fill="#CBD5E1" fill-opacity="0.85"/>
  <rect x="878" y="286" width="160" height="10" rx="5" fill="#94A3B8" fill-opacity="0.7"/>

  <path d="M280 270H320" stroke="#818CF8" stroke-width="4" stroke-linecap="round"/>
  <path d="M540 270H580" stroke="#38BDF8" stroke-width="4" stroke-linecap="round"/>
  <path d="M800 270H840" stroke="#2DD4BF" stroke-width="4" stroke-linecap="round"/>

  <path d="M308 270L297 262L297 278L308 270Z" fill="#818CF8"/>
  <path d="M568 270L557 262L557 278L568 270Z" fill="#38BDF8"/>
  <path d="M828 270L817 262L817 278L828 270Z" fill="#2DD4BF"/>

  <rect x="60" y="72" width="1000" height="52" rx="14" fill="#111827" stroke="#334155"/>
  <rect x="84" y="90" width="240" height="16" rx="8" fill="#C4B5FD" fill-opacity="0.9"/>
  <rect x="338" y="90" width="190" height="16" rx="8" fill="#94A3B8" fill-opacity="0.7"/>
  <rect x="540" y="90" width="190" height="16" rx="8" fill="#94A3B8" fill-opacity="0.7"/>
  <rect x="742" y="90" width="190" height="16" rx="8" fill="#94A3B8" fill-opacity="0.7"/>
</svg>
