<svg width="1600" height="900" viewBox="0 0 1600 900" fill="none" xmlns="http://www.w3.org/2000/svg">
  <defs>
    <linearGradient id="bg" x1="0" y1="0" x2="1" y2="1">
      <stop offset="0%" stop-color="#0f1b2a"/>
      <stop offset="100%" stop-color="#14283a"/>
    </linearGradient>
    <radialGradient id="mist" cx="0" cy="0" r="1" gradientUnits="userSpaceOnUse" gradientTransform="translate(900 480) rotate(120) scale(880 460)">
      <stop stop-color="#d7c8aa" stop-opacity="0.17"/>
      <stop offset="1" stop-color="#d7c8aa" stop-opacity="0"/>
    </radialGradient>
  </defs>
  <rect width="1600" height="900" fill="url(#bg)"/>
  <rect width="1600" height="900" fill="url(#mist)"/>
  <path d="M0 680C140 620 220 590 360 620C520 654 600 760 760 776C948 794 1040 658 1190 620C1328 585 1456 606 1600 676V900H0V680Z" fill="#1c3345" fill-opacity="0.42"/>
  <path d="M1100 110C1210 170 1300 290 1410 360C1490 410 1540 460 1600 560" stroke="#8a7d66" stroke-opacity="0.24" stroke-width="26" stroke-linecap="round"/>
  <path d="M160 170C220 146 316 172 380 214C438 252 486 318 546 346" stroke="#9d8b6d" stroke-opacity="0.2" stroke-width="18" stroke-linecap="round"/>
  <path d="M680 190L742 224L720 288L640 286L615 226L680 190Z" fill="#cab792" fill-opacity="0.12"/>
</svg>
